<svg xmlns="http://www.w3.org/2000/svg" width="192" height="192" viewBox="0 0 192 192">
  <g id="그룹_532" data-name="그룹 532" transform="translate(-446 -2865)">
    <ellipse id="타원_81" data-name="타원 81" cx="96" cy="95.5" rx="96" ry="95.5" transform="translate(446 2865)" fill="#dcdcdc"/>
    <g id="그룹_233" data-name="그룹 233" transform="translate(471.903 2890.025)">
      <path id="패스_250" data-name="패스 250" d="M132.234,270.211c-29.247,0-55,10.56-70.1,26.584a93.382,93.382,0,0,0,140.194,0C187.237,280.771,161.481,270.211,132.234,270.211Z" transform="translate(-62.137 -161.504)" fill="#fff"/>
      <path id="패스_251" data-name="패스 251" d="M170.251,259.335c-.8-11.6-.4-23.51-4.135-34.525-4.2-12.376-13.857-22.959-26.108-27.513s-26.871-2.675-37.107,5.448c-3.587,2.847-6.81,6.933-6.45,11.5-6.216-2.1-13.146,2.311-16.052,8.2S77.638,235.2,78.05,241.75c1.211,19.2,4.137,38.874-1.056,57.373l47.791,1.447c5.1.154,10.207.309,15.3.089,13.008-.563,26.491-3.493,38.743.916A164.386,164.386,0,0,1,170.251,259.335Z" transform="translate(-55.557 -194.871)" fill="#fff"/>
    </g>
  </g>
</svg>
