<svg xmlns="http://www.w3.org/2000/svg" width="129.161" height="100.44" viewBox="0 0 129.161 100.44">
  <g id="그룹_73" data-name="그룹 73" transform="translate(-57.929 -112.1)">
    <g id="그룹_69" data-name="그룹 69" transform="translate(100.893 112.1)">
      <g id="그룹_68" data-name="그룹 68" transform="translate(0 23.93)">
        <g id="그룹_62" data-name="그룹 62" transform="translate(0 0.148)">
          <rect id="사각형_406" data-name="사각형 406" width="42.513" height="2.768" fill="#b10044"/>
        </g>
        <g id="그룹_63" data-name="그룹 63" transform="translate(2.886 9.864)">
          <rect id="사각형_407" data-name="사각형 407" width="36.742" height="2.768" fill="#b10044"/>
        </g>
        <g id="그룹_64" data-name="그룹 64" transform="translate(5.876 19.579)">
          <rect id="사각형_408" data-name="사각형 408" width="30.762" height="2.768" fill="#b10044"/>
        </g>
        <g id="그룹_65" data-name="그룹 65" transform="translate(7.345 29.294)">
          <rect id="사각형_409" data-name="사각형 409" width="27.823" height="2.768" fill="#b10044"/>
        </g>
        <g id="그룹_66" data-name="그룹 66" transform="translate(7.345 39.01)">
          <rect id="사각형_410" data-name="사각형 410" width="27.823" height="2.768" fill="#b10044"/>
        </g>
        <g id="그룹_67" data-name="그룹 67" transform="translate(34.584)">
          <path id="패스_75" data-name="패스 75" d="M143.372,160.534a1.409,1.409,0,0,1-.4-.058,1.384,1.384,0,0,1-.931-1.721l5.881-19.728a1.384,1.384,0,1,1,2.652.791L144.7,159.545A1.383,1.383,0,0,1,143.372,160.534Z" transform="translate(-141.987 -138.039)" fill="#b10044"/>
        </g>
      </g>
      <path id="패스_76" data-name="패스 76" d="M145.986,112.1s.861,9-4.109,15.488-13.888,7.992-13.888,7.992-.862-9,4.108-15.488S145.986,112.1,145.986,112.1Z" transform="translate(-106.315 -112.1)" fill="#b10044"/>
    </g>
    <g id="그룹_72" data-name="그룹 72" transform="translate(57.929 193.509)">
      <g id="그룹_70" data-name="그룹 70" transform="translate(0 0.071)">
        <path id="패스_77" data-name="패스 77" d="M58.2,219.011a.89.89,0,0,1-.271-.655V201.333a.877.877,0,0,1,.94-.912h9.558a.892.892,0,0,1,.656.271.927.927,0,0,1,.27.684.941.941,0,0,1-.263.684.888.888,0,0,1-.663.27h-8.59v7.393h6a.9.9,0,0,1,.677.271.922.922,0,0,1,.263.67.858.858,0,0,1-.263.64.932.932,0,0,1-.677.256h-6v6.8a.871.871,0,0,1-.284.655.958.958,0,0,1-.685.27A.906.906,0,0,1,58.2,219.011Z" transform="translate(-57.929 -200.421)" fill="#b10044"/>
        <path id="패스_78" data-name="패스 78" d="M72.892,218.956a.9.9,0,0,1-.278-.67v-16.88a.913.913,0,0,1,.278-.684.933.933,0,0,1,.677-.271h5.056a7.155,7.155,0,0,1,2.621.484,6.546,6.546,0,0,1,2.165,1.368,6.062,6.062,0,0,1,1.446,2.108,6.738,6.738,0,0,1,.52,2.636,6.323,6.323,0,0,1-.442,2.371,5.942,5.942,0,0,1-1.254,1.945,6.633,6.633,0,0,1-1.894,1.367,7.114,7.114,0,0,1-2.336.67l4.3,4.174a.868.868,0,0,1,.285.7.884.884,0,0,1-.292.662.95.95,0,0,1-.677.278.915.915,0,0,1-.669-.284l-5.641-5.485H74.523v4.842a.9.9,0,0,1-.278.67.98.98,0,0,1-1.353,0Zm5.734-7.436a5.434,5.434,0,0,0,1.951-.342,4.547,4.547,0,0,0,1.553-.969,4.189,4.189,0,0,0,1-1.424,4.351,4.351,0,0,0,.349-1.737,4.7,4.7,0,0,0-.363-1.816,4.479,4.479,0,0,0-1-1.5,4.672,4.672,0,0,0-1.539-1,5.059,5.059,0,0,0-1.909-.356H74.523v9.145Z" transform="translate(-59.066 -200.423)" fill="#b10044"/>
        <path id="패스_79" data-name="패스 79" d="M93.177,218.827a6.37,6.37,0,0,1-3.383-3.7,7.648,7.648,0,0,1-.442-2.593V201.406a.927.927,0,0,1,.285-.691,1.008,1.008,0,0,1,1.389,0,.919.919,0,0,1,.292.691v11a5.969,5.969,0,0,0,.335,2.031,4.687,4.687,0,0,0,.947,1.6,4.223,4.223,0,0,0,1.474,1.04,4.723,4.723,0,0,0,1.888.371,4.872,4.872,0,0,0,1.945-.385,4.664,4.664,0,0,0,1.559-1.1,4.766,4.766,0,0,0,1-1.66,6.078,6.078,0,0,0,.349-2.087V201.406a.927.927,0,0,1,.285-.691,1.007,1.007,0,0,1,1.388,0,.916.916,0,0,1,.292.691v10.869a7.96,7.96,0,0,1-.463,2.714,6.744,6.744,0,0,1-1.332,2.257A6.168,6.168,0,0,1,98.8,218.82a7.15,7.15,0,0,1-2.878.563A6.526,6.526,0,0,1,93.177,218.827Z" transform="translate(-60.363 -200.422)" fill="#b10044"/>
      </g>
      <g id="그룹_71" data-name="그룹 71" transform="translate(46.14)">
        <path id="패스_80" data-name="패스 80" d="M108.221,218.943a.9.9,0,0,1-.278-.67V201.392a.894.894,0,0,1,.278-.669.916.916,0,0,1,.662-.271.957.957,0,0,1,.684.271.884.884,0,0,1,.285.669v6.7l8.248-7.365a.977.977,0,0,1,.641-.271,1,1,0,0,1,.684.285,1.02,1.02,0,0,1,.3.7.933.933,0,0,1-.314.684l-8.234,7.294,8.932,8.177a.848.848,0,0,1,.285.684.9.9,0,0,1-.285.656.916.916,0,0,1-.67.284.938.938,0,0,1-.67-.284l-8.917-8.149v7.493a.888.888,0,0,1-.285.67.956.956,0,0,1-.684.27A.915.915,0,0,1,108.221,218.943Z" transform="translate(-107.943 -200.352)" fill="#b10044"/>
        <path id="패스_81" data-name="패스 81" d="M127.378,218.848a7.013,7.013,0,0,1-2.215-1.453,6.736,6.736,0,0,1-1.468-2.143,6.409,6.409,0,0,1-.527-2.572v-5.627a6.4,6.4,0,0,1,.527-2.571,6.907,6.907,0,0,1,1.468-2.159,6.831,6.831,0,0,1,2.215-1.459,7.152,7.152,0,0,1,5.356,0,6.766,6.766,0,0,1,3.682,3.618,6.4,6.4,0,0,1,.527,2.571v5.627a6.409,6.409,0,0,1-.527,2.572,6.747,6.747,0,0,1-1.467,2.143,7.239,7.239,0,0,1-2.222,1.453,6.8,6.8,0,0,1-2.664.527A6.887,6.887,0,0,1,127.378,218.848Zm4.658-1.759a4.942,4.942,0,0,0,1.6-1.047,4.586,4.586,0,0,0,1.032-1.517,4.656,4.656,0,0,0,.363-1.83V207.04a4.674,4.674,0,0,0-.363-1.824,4.569,4.569,0,0,0-1.032-1.524,4.957,4.957,0,0,0-1.6-1.047,5.191,5.191,0,0,0-5.563,1.047,4.673,4.673,0,0,0-1.04,1.524,4.6,4.6,0,0,0-.371,1.824V212.7a4.673,4.673,0,0,0,.363,1.83,4.505,4.505,0,0,0,1.047,1.517,5.272,5.272,0,0,0,5.563,1.047Z" transform="translate(-109.122 -200.344)" fill="#b10044"/>
        <path id="패스_82" data-name="패스 82" d="M142.044,218.936a.909.909,0,0,1-.285-.676V205.667a5.088,5.088,0,0,1,.406-2.009,5.219,5.219,0,0,1,2.793-2.792,5.1,5.1,0,0,1,2-.4,4.893,4.893,0,0,1,2.372.59,5.576,5.576,0,0,1,1.845,1.617,5.573,5.573,0,0,1,1.844-1.617,4.9,4.9,0,0,1,2.372-.59,5.183,5.183,0,0,1,5.214,5.2V218.26a.909.909,0,0,1-.285.676.944.944,0,0,1-.684.278.982.982,0,0,1-.7-.278.9.9,0,0,1-.292-.676V205.739a3.226,3.226,0,0,0-.249-1.26,3.263,3.263,0,0,0-.7-1.048,3.2,3.2,0,0,0-1.041-.69,3.264,3.264,0,0,0-1.268-.25,3.088,3.088,0,0,0-1.254.256,3.217,3.217,0,0,0-1.026.713,3.289,3.289,0,0,0-.676,1.039,3.2,3.2,0,0,0-.249,1.24v12.507a.924.924,0,0,1-.292.685.972.972,0,0,1-.7.284.925.925,0,0,1-.691-.284.946.946,0,0,1-.278-.685V205.725a3.068,3.068,0,0,0-.256-1.232,3.292,3.292,0,0,0-.7-1.032,3.349,3.349,0,0,0-1.047-.713,3.1,3.1,0,0,0-1.246-.256,3.315,3.315,0,0,0-1.254.243,3.1,3.1,0,0,0-1.04.684,3.27,3.27,0,0,0-.7,1.047,3.214,3.214,0,0,0-.249,1.261V218.26a.909.909,0,0,1-.285.676.944.944,0,0,1-.684.278A.961.961,0,0,1,142.044,218.936Z" transform="translate(-110.562 -200.354)" fill="#b10044"/>
        <path id="패스_83" data-name="패스 83" d="M166.049,219.07a1.06,1.06,0,0,1-.321-.342l-.028-.057-.043-.1a.75.75,0,0,1-.057-.327V201.419a.978.978,0,0,1,.271-.69.891.891,0,0,1,.684-.292h7.108a4.8,4.8,0,0,1,1.93.4,5.081,5.081,0,0,1,1.617,1.111,5.027,5.027,0,0,1,1.076,1.688,5.494,5.494,0,0,1,.391,2.031,4.826,4.826,0,0,1-.506,2.2,4.912,4.912,0,0,1-1.417,1.7,5.328,5.328,0,0,1,1.7,1.887,5.3,5.3,0,0,1,.214,4.523,5.28,5.28,0,0,1-1.133,1.681,5.168,5.168,0,0,1-1.681,1.147,5.072,5.072,0,0,1-2.008.406h-7.365A.851.851,0,0,1,166.049,219.07Zm7.742-10.414a3.042,3.042,0,0,0,2.094-.911,3.11,3.11,0,0,0,.626-.947,2.849,2.849,0,0,0,.228-1.132,3.433,3.433,0,0,0-.256-1.3,3.132,3.132,0,0,0-.684-1.061,3.278,3.278,0,0,0-1.025-.649,3.517,3.517,0,0,0-1.24-.25h-5.983v6.254Zm.057,8.6a2.879,2.879,0,0,0,1.225-.271,3.6,3.6,0,0,0,1.04-.726,3.267,3.267,0,0,0,.684-1.054,3.342,3.342,0,0,0,0-2.5,3.545,3.545,0,0,0-.67-1.076,3.344,3.344,0,0,0-1.011-.74,2.932,2.932,0,0,0-1.21-.285h-6.354v6.652Z" transform="translate(-112.409 -200.351)" fill="#b10044"/>
        <path id="패스_84" data-name="패스 84" d="M187.2,218.827a6.369,6.369,0,0,1-3.383-3.7,7.647,7.647,0,0,1-.442-2.593V201.406a.927.927,0,0,1,.285-.691,1.008,1.008,0,0,1,1.389,0,.919.919,0,0,1,.292.691v11a5.968,5.968,0,0,0,.335,2.031,4.687,4.687,0,0,0,.947,1.6,4.223,4.223,0,0,0,1.474,1.04,4.723,4.723,0,0,0,1.888.371,4.872,4.872,0,0,0,1.945-.385,4.664,4.664,0,0,0,1.559-1.1,4.766,4.766,0,0,0,1-1.66,6.077,6.077,0,0,0,.349-2.087V201.406a.927.927,0,0,1,.285-.691,1.007,1.007,0,0,1,1.388,0,.916.916,0,0,1,.292.691v10.869a7.959,7.959,0,0,1-.463,2.714,6.744,6.744,0,0,1-1.332,2.257,6.168,6.168,0,0,1-2.193,1.574,7.15,7.15,0,0,1-2.878.563A6.526,6.526,0,0,1,187.2,218.827Z" transform="translate(-113.785 -200.351)" fill="#b10044"/>
      </g>
    </g>
  </g>
</svg>
