<svg xmlns="http://www.w3.org/2000/svg" width="197.357" height="71.225" viewBox="0 0 197.357 71.225">
  <g id="그룹_85" data-name="그룹 85" transform="translate(-37.352 -436.045)">
    <g id="그룹_81" data-name="그룹 81">
      <g id="그룹_80" data-name="그룹 80">
        <g id="그룹_74" data-name="그룹 74">
          <rect id="사각형_413" data-name="사각형 413" width="46.082" height="3" transform="translate(37.352 462.145)" fill="#b10044"/>
        </g>
        <g id="그룹_75" data-name="그룹 75">
          <rect id="사각형_414" data-name="사각형 414" width="39.827" height="3" transform="translate(40.48 472.676)" fill="#b10044"/>
        </g>
        <g id="그룹_76" data-name="그룹 76">
          <rect id="사각형_415" data-name="사각형 415" width="33.344" height="3" transform="translate(43.721 483.207)" fill="#b10044"/>
        </g>
        <g id="그룹_77" data-name="그룹 77">
          <rect id="사각형_416" data-name="사각형 416" width="30.159" height="3" transform="translate(45.313 493.738)" fill="#b10044"/>
        </g>
        <g id="그룹_78" data-name="그룹 78">
          <rect id="사각형_417" data-name="사각형 417" width="30.159" height="3" transform="translate(45.313 504.269)" fill="#b10044"/>
        </g>
        <g id="그룹_79" data-name="그룹 79">
          <path id="패스_85" data-name="패스 85" d="M76.34,486.368a1.5,1.5,0,0,1-1.438-1.929l6.375-21.384a1.5,1.5,0,0,1,2.875.857L77.777,485.3A1.5,1.5,0,0,1,76.34,486.368Z" fill="#b10044"/>
        </g>
      </g>
      <path id="패스_86" data-name="패스 86" d="M80.353,436.045s.934,9.76-4.453,16.789S60.845,461.5,60.845,461.5s-.933-9.761,4.454-16.789S80.353,436.045,80.353,436.045Z" fill="#b10044"/>
    </g>
    <g id="그룹_82" data-name="그룹 82">
      <path id="패스_87" data-name="패스 87" d="M95,494.62a.965.965,0,0,1-.294-.71V475.458a.951.951,0,0,1,1.019-.989h10.361a.969.969,0,0,1,.711.294,1,1,0,0,1,.293.741,1.017,1.017,0,0,1-.286.741.96.96,0,0,1-.718.293H96.773v8.014h6.5a.977.977,0,0,1,.733.294,1,1,0,0,1,.286.726.927.927,0,0,1-.286.694,1.008,1.008,0,0,1-.733.278h-6.5v7.366a.944.944,0,0,1-.308.71,1.04,1.04,0,0,1-.742.293A.982.982,0,0,1,95,494.62Z" fill="#b10044"/>
      <path id="패스_88" data-name="패스 88" d="M109.69,494.558a.97.97,0,0,1-.3-.726v-18.3a.991.991,0,0,1,.3-.741,1.01,1.01,0,0,1,.733-.294H115.9a7.759,7.759,0,0,1,2.841.525,7.1,7.1,0,0,1,2.347,1.483,6.58,6.58,0,0,1,1.567,2.285,7.3,7.3,0,0,1,.564,2.857,6.853,6.853,0,0,1-.479,2.57,6.44,6.44,0,0,1-1.359,2.108,7.2,7.2,0,0,1-2.053,1.482,7.717,7.717,0,0,1-2.533.726l4.664,4.524a.94.94,0,0,1,.309.757.958.958,0,0,1-.317.718,1.03,1.03,0,0,1-.734.3.991.991,0,0,1-.725-.308l-6.115-5.945h-2.424v5.249a.97.97,0,0,1-.3.726,1.062,1.062,0,0,1-1.467,0Zm6.215-8.06a5.891,5.891,0,0,0,2.115-.371,4.929,4.929,0,0,0,1.683-1.05,4.54,4.54,0,0,0,1.089-1.544,4.716,4.716,0,0,0,.378-1.883,5.1,5.1,0,0,0-.393-1.969,4.855,4.855,0,0,0-1.089-1.629,5.063,5.063,0,0,0-1.668-1.081,5.483,5.483,0,0,0-2.069-.386h-4.493V486.5Z" fill="#b10044"/>
      <path id="패스_89" data-name="패스 89" d="M130.273,494.419a6.9,6.9,0,0,1-3.667-4.014,8.29,8.29,0,0,1-.479-2.811V475.535a1,1,0,0,1,.309-.749,1.092,1.092,0,0,1,1.506,0,1,1,0,0,1,.316.749v11.92a6.47,6.47,0,0,0,.363,2.2,5.065,5.065,0,0,0,1.027,1.737,4.578,4.578,0,0,0,1.6,1.127,5.116,5.116,0,0,0,2.046.4,5.28,5.28,0,0,0,2.108-.417,5.056,5.056,0,0,0,1.69-1.189,5.181,5.181,0,0,0,1.089-1.8,6.588,6.588,0,0,0,.378-2.262v-11.72a1,1,0,0,1,.309-.749,1.091,1.091,0,0,1,1.505,0,.993.993,0,0,1,.317.749v11.781a8.628,8.628,0,0,1-.5,2.942,7.309,7.309,0,0,1-1.444,2.447,6.681,6.681,0,0,1-2.378,1.706,7.746,7.746,0,0,1-3.119.61A7.074,7.074,0,0,1,130.273,494.419Z" fill="#b10044"/>
    </g>
    <g id="그룹_83" data-name="그룹 83">
      <path id="패스_90" data-name="패스 90" d="M145.019,494.543a.973.973,0,0,1-.3-.726v-18.3a.971.971,0,0,1,.3-.725.992.992,0,0,1,.718-.294,1.037,1.037,0,0,1,.741.294.96.96,0,0,1,.309.725v7.258l8.94-7.983a1.06,1.06,0,0,1,.695-.294,1.079,1.079,0,0,1,.741.309,1.1,1.1,0,0,1,.324.757,1.007,1.007,0,0,1-.339.741l-8.925,7.906,9.681,8.863a.917.917,0,0,1,.31.741.975.975,0,0,1-.31.711.991.991,0,0,1-.725.308,1.017,1.017,0,0,1-.726-.308l-9.666-8.833v8.122a.962.962,0,0,1-.309.726,1.036,1.036,0,0,1-.741.293A.991.991,0,0,1,145.019,494.543Z" fill="#b10044"/>
      <path id="패스_91" data-name="패스 91" d="M164.506,494.45a7.6,7.6,0,0,1-2.4-1.575,7.3,7.3,0,0,1-1.591-2.323,6.948,6.948,0,0,1-.571-2.788v-6.1a6.94,6.94,0,0,1,.571-2.787,7.487,7.487,0,0,1,1.591-2.34,7.406,7.406,0,0,1,2.4-1.582,7.753,7.753,0,0,1,5.806,0,7.334,7.334,0,0,1,3.991,3.922,6.94,6.94,0,0,1,.571,2.787v6.1a6.948,6.948,0,0,1-.571,2.788,7.315,7.315,0,0,1-1.59,2.323,7.847,7.847,0,0,1-2.409,1.575,7.375,7.375,0,0,1-2.888.571A7.465,7.465,0,0,1,164.506,494.45Zm5.049-1.907a5.356,5.356,0,0,0,1.737-1.135,4.971,4.971,0,0,0,1.119-1.644,5.047,5.047,0,0,0,.394-1.984v-6.13a5.067,5.067,0,0,0-.394-1.977,4.953,4.953,0,0,0-1.119-1.652,5.373,5.373,0,0,0-1.737-1.135,5.627,5.627,0,0,0-6.03,1.135,5.066,5.066,0,0,0-1.127,1.652,4.985,4.985,0,0,0-.4,1.977v6.13a5.065,5.065,0,0,0,.394,1.984,4.869,4.869,0,0,0,1.135,1.644,5.715,5.715,0,0,0,6.03,1.135Z" fill="#b10044"/>
      <path id="패스_92" data-name="패스 92" d="M178.843,494.535a.985.985,0,0,1-.309-.733v-13.65a5.516,5.516,0,0,1,.44-2.178A5.658,5.658,0,0,1,182,474.948a5.532,5.532,0,0,1,2.169-.432,5.294,5.294,0,0,1,2.571.641,6.04,6.04,0,0,1,2,1.752,6.027,6.027,0,0,1,2-1.752,5.3,5.3,0,0,1,2.571-.641,5.622,5.622,0,0,1,5.652,5.636V493.8a.985.985,0,0,1-.309.733,1.023,1.023,0,0,1-.741.3,1.065,1.065,0,0,1-.764-.3.971.971,0,0,1-.317-.733V480.229a3.5,3.5,0,0,0-.27-1.366,3.537,3.537,0,0,0-.764-1.136,3.468,3.468,0,0,0-1.128-.748,3.541,3.541,0,0,0-1.374-.271,3.348,3.348,0,0,0-1.359.278,3.486,3.486,0,0,0-1.112.773,3.558,3.558,0,0,0-.733,1.127,3.461,3.461,0,0,0-.271,1.343v13.557a1,1,0,0,1-.316.742,1.054,1.054,0,0,1-.764.308,1,1,0,0,1-.749-.308,1.025,1.025,0,0,1-.3-.742V480.214a3.325,3.325,0,0,0-.278-1.336,3.568,3.568,0,0,0-.757-1.119,3.641,3.641,0,0,0-1.135-.773,3.362,3.362,0,0,0-1.351-.278,3.589,3.589,0,0,0-1.359.263,3.358,3.358,0,0,0-1.127.741,3.543,3.543,0,0,0-.764,1.135,3.466,3.466,0,0,0-.27,1.367V493.8a.982.982,0,0,1-.31.733,1.019,1.019,0,0,1-.74.3A1.042,1.042,0,0,1,178.843,494.535Z" fill="#b10044"/>
      <path id="패스_93" data-name="패스 93" d="M202.861,494.682a1.157,1.157,0,0,1-.347-.371l-.03-.062-.047-.108a.813.813,0,0,1-.062-.355V475.55a1.06,1.06,0,0,1,.294-.748.966.966,0,0,1,.741-.317h7.705a5.2,5.2,0,0,1,2.092.432,5.385,5.385,0,0,1,2.919,3.034,5.956,5.956,0,0,1,.424,2.2,5.231,5.231,0,0,1-.548,2.385,5.315,5.315,0,0,1-1.537,1.846,5.769,5.769,0,0,1,1.846,2.045,5.62,5.62,0,0,1,.672,2.71,5.553,5.553,0,0,1-.44,2.193,5.725,5.725,0,0,1-1.228,1.822,5.6,5.6,0,0,1-1.822,1.243,5.5,5.5,0,0,1-2.177.44h-7.983A.929.929,0,0,1,202.861,494.682Zm8.393-11.288a3.3,3.3,0,0,0,2.27-.988,3.372,3.372,0,0,0,.679-1.027,3.089,3.089,0,0,0,.247-1.227,3.721,3.721,0,0,0-.278-1.413,3.4,3.4,0,0,0-.741-1.15,3.547,3.547,0,0,0-1.112-.7,3.8,3.8,0,0,0-1.343-.271h-6.485v6.779Zm.062,9.327a3.121,3.121,0,0,0,1.328-.294,3.906,3.906,0,0,0,1.127-.787,3.541,3.541,0,0,0,.741-1.143,3.622,3.622,0,0,0,0-2.71,3.841,3.841,0,0,0-.726-1.166,3.625,3.625,0,0,0-1.1-.8,3.181,3.181,0,0,0-1.312-.309h-6.887v7.211Z" fill="#b10044"/>
      <path id="패스_94" data-name="패스 94" d="M224.294,494.419a6.9,6.9,0,0,1-3.667-4.014,8.29,8.29,0,0,1-.479-2.811V475.535a1,1,0,0,1,.309-.749,1.092,1.092,0,0,1,1.506,0,1,1,0,0,1,.316.749v11.92a6.47,6.47,0,0,0,.363,2.2,5.065,5.065,0,0,0,1.027,1.737,4.577,4.577,0,0,0,1.6,1.127,5.116,5.116,0,0,0,2.046.4,5.28,5.28,0,0,0,2.108-.417,5.056,5.056,0,0,0,1.69-1.189,5.18,5.18,0,0,0,1.089-1.8,6.588,6.588,0,0,0,.378-2.262v-11.72a1,1,0,0,1,.309-.749,1.091,1.091,0,0,1,1.505,0,.993.993,0,0,1,.317.749v11.781a8.628,8.628,0,0,1-.5,2.942,7.309,7.309,0,0,1-1.444,2.447,6.681,6.681,0,0,1-2.378,1.706,7.746,7.746,0,0,1-3.119.61A7.074,7.074,0,0,1,224.294,494.419Z" fill="#b10044"/>
    </g>
  </g>
</svg>
