<svg xmlns="http://www.w3.org/2000/svg" width="155.971" height="56.288" viewBox="0 0 155.971 56.288">
  <g id="그룹_120" data-name="그룹 120" transform="translate(-37.352 -436.045)">
    <g id="그룹_27" data-name="그룹 27" transform="translate(37.352 436.045)">
      <g id="그룹_26" data-name="그룹 26" transform="translate(0 20.499)">
        <g id="그룹_20" data-name="그룹 20" transform="translate(0 0.127)">
          <rect id="사각형_162" data-name="사각형 162" width="36.418" height="2.371" fill="#b10044"/>
        </g>
        <g id="그룹_21" data-name="그룹 21" transform="translate(2.472 8.45)">
          <rect id="사각형_163" data-name="사각형 163" width="31.475" height="2.371" fill="#b10044"/>
        </g>
        <g id="그룹_22" data-name="그룹 22" transform="translate(5.034 16.772)">
          <rect id="사각형_164" data-name="사각형 164" width="26.352" height="2.371" fill="#b10044"/>
        </g>
        <g id="그룹_23" data-name="그룹 23" transform="translate(6.292 25.095)">
          <rect id="사각형_165" data-name="사각형 165" width="23.835" height="2.371" fill="#b10044"/>
        </g>
        <g id="그룹_24" data-name="그룹 24" transform="translate(6.292 33.418)">
          <rect id="사각형_166" data-name="사각형 166" width="23.835" height="2.371" fill="#b10044"/>
        </g>
        <g id="그룹_25" data-name="그룹 25" transform="translate(29.626)">
          <path id="패스_50" data-name="패스 50" d="M76.025,481.255a1.187,1.187,0,0,1-1.136-1.524l5.038-16.9a1.185,1.185,0,1,1,2.272.677l-5.038,16.9A1.185,1.185,0,0,1,76.025,481.255Z" transform="translate(-74.839 -461.984)" fill="#b10044"/>
        </g>
      </g>
      <path id="패스_51" data-name="패스 51" d="M76.249,436.045s.738,7.713-3.519,13.268-11.9,6.846-11.9,6.846-.737-7.714,3.52-13.268S76.249,436.045,76.249,436.045Z" transform="translate(-42.265 -436.045)" fill="#b10044"/>
    </g>
    <g id="그룹_28" data-name="그룹 28" transform="translate(82.677 466.411)">
      <path id="패스_52" data-name="패스 52" d="M94.936,490.394a.763.763,0,0,1-.232-.561V475.251a.752.752,0,0,1,.805-.782H103.7a.765.765,0,0,1,.562.232.794.794,0,0,1,.232.586.8.8,0,0,1-.226.586.758.758,0,0,1-.567.232H96.339v6.333h5.138a.772.772,0,0,1,.579.232.787.787,0,0,1,.226.574.733.733,0,0,1-.226.548.8.8,0,0,1-.579.22H96.339v5.821a.747.747,0,0,1-.243.561.822.822,0,0,1-.586.232A.776.776,0,0,1,94.936,490.394Z" transform="translate(-94.704 -474.469)" fill="#b10044"/>
      <path id="패스_53" data-name="패스 53" d="M109.627,490.352a.767.767,0,0,1-.238-.574v-14.46a.783.783,0,0,1,.238-.586.8.8,0,0,1,.579-.232h4.332a6.133,6.133,0,0,1,2.245.415,5.608,5.608,0,0,1,1.855,1.172,5.2,5.2,0,0,1,1.238,1.806,5.771,5.771,0,0,1,.446,2.258,5.417,5.417,0,0,1-.379,2.031,5.09,5.09,0,0,1-1.074,1.666,5.693,5.693,0,0,1-1.622,1.171,6.1,6.1,0,0,1-2,.574l3.686,3.575a.743.743,0,0,1,.244.6.757.757,0,0,1-.251.567.814.814,0,0,1-.58.238.783.783,0,0,1-.573-.243l-4.833-4.7h-1.916v4.148a.767.767,0,0,1-.238.574.839.839,0,0,1-1.159,0Zm4.912-6.37a4.655,4.655,0,0,0,1.671-.293,3.9,3.9,0,0,0,1.33-.83,3.589,3.589,0,0,0,.861-1.22,3.727,3.727,0,0,0,.3-1.488,4.03,4.03,0,0,0-.311-1.556,3.837,3.837,0,0,0-.861-1.287,4,4,0,0,0-1.318-.854,4.333,4.333,0,0,0-1.635-.305h-3.551v7.834Z" transform="translate(-97.784 -474.476)" fill="#b10044"/>
      <path id="패스_54" data-name="패스 54" d="M129.4,490.239a5.457,5.457,0,0,1-2.9-3.172,6.551,6.551,0,0,1-.379-2.222v-9.53a.794.794,0,0,1,.244-.592.863.863,0,0,1,1.19,0,.787.787,0,0,1,.25.592v9.42a5.113,5.113,0,0,0,.287,1.739,4,4,0,0,0,.812,1.373,3.619,3.619,0,0,0,1.263.891,4.043,4.043,0,0,0,1.617.318,4.174,4.174,0,0,0,1.666-.33,4,4,0,0,0,1.336-.94,4.093,4.093,0,0,0,.861-1.422,5.208,5.208,0,0,0,.3-1.788v-9.262a.794.794,0,0,1,.244-.592.862.862,0,0,1,1.189,0,.785.785,0,0,1,.251.592v9.311a6.82,6.82,0,0,1-.4,2.325,5.777,5.777,0,0,1-1.141,1.934,5.279,5.279,0,0,1-1.879,1.348,6.121,6.121,0,0,1-2.465.482A5.592,5.592,0,0,1,129.4,490.239Z" transform="translate(-101.294 -474.472)" fill="#b10044"/>
    </g>
    <g id="그룹_29" data-name="그룹 29" transform="translate(122.203 466.35)">
      <path id="패스_55" data-name="패스 55" d="M144.956,490.34a.769.769,0,0,1-.238-.574V475.305a.767.767,0,0,1,.238-.573.784.784,0,0,1,.567-.232.82.82,0,0,1,.586.232.759.759,0,0,1,.244.573v5.736l7.065-6.309a.837.837,0,0,1,.549-.232.852.852,0,0,1,.586.244.873.873,0,0,1,.256.6.8.8,0,0,1-.268.586l-7.053,6.248,7.651,7a.724.724,0,0,1,.245.586.771.771,0,0,1-.245.562.783.783,0,0,1-.573.243.8.8,0,0,1-.574-.243l-7.639-6.981v6.419a.76.76,0,0,1-.244.574.819.819,0,0,1-.586.232A.783.783,0,0,1,144.956,490.34Z" transform="translate(-144.718 -474.415)" fill="#b10044"/>
      <path id="패스_56" data-name="패스 56" d="M163.549,490.244a6.006,6.006,0,0,1-1.9-1.245,5.77,5.77,0,0,1-1.257-1.836,5.491,5.491,0,0,1-.451-2.2v-4.82a5.485,5.485,0,0,1,.451-2.2,5.917,5.917,0,0,1,1.257-1.849,5.854,5.854,0,0,1,1.9-1.25,6.127,6.127,0,0,1,4.588,0,5.8,5.8,0,0,1,3.154,3.1,5.485,5.485,0,0,1,.451,2.2v4.82a5.49,5.49,0,0,1-.451,2.2A5.781,5.781,0,0,1,170.035,489a6.2,6.2,0,0,1-1.9,1.245,5.828,5.828,0,0,1-2.282.451A5.9,5.9,0,0,1,163.549,490.244Zm3.99-1.507a4.235,4.235,0,0,0,1.373-.9,3.929,3.929,0,0,0,.884-1.3,3.989,3.989,0,0,0,.311-1.568v-4.845a4,4,0,0,0-.311-1.562,3.914,3.914,0,0,0-.884-1.306,4.246,4.246,0,0,0-1.373-.9,4.447,4.447,0,0,0-4.766.9,4,4,0,0,0-.891,1.306,3.94,3.94,0,0,0-.318,1.562v4.845a4,4,0,0,0,.311,1.568,3.849,3.849,0,0,0,.9,1.3,4.517,4.517,0,0,0,4.766.9Z" transform="translate(-147.911 -474.392)" fill="#b10044"/>
      <path id="패스_57" data-name="패스 57" d="M178.778,490.337a.779.779,0,0,1-.244-.579V478.97a4.359,4.359,0,0,1,.348-1.721,4.471,4.471,0,0,1,2.392-2.391,4.372,4.372,0,0,1,1.714-.341,4.184,4.184,0,0,1,2.032.507,4.773,4.773,0,0,1,1.581,1.385,4.763,4.763,0,0,1,1.58-1.385,4.188,4.188,0,0,1,2.032-.507,4.443,4.443,0,0,1,4.467,4.454v10.787a.779.779,0,0,1-.244.579.809.809,0,0,1-.586.238.841.841,0,0,1-.6-.238.767.767,0,0,1-.251-.579V479.031a2.763,2.763,0,0,0-.213-1.079,2.8,2.8,0,0,0-.6-.9,2.739,2.739,0,0,0-.891-.591,2.8,2.8,0,0,0-1.086-.214,2.646,2.646,0,0,0-1.074.22,2.754,2.754,0,0,0-.879.611,2.811,2.811,0,0,0-.579.891,2.735,2.735,0,0,0-.214,1.061v10.714a.791.791,0,0,1-.25.586.833.833,0,0,1-.6.243.792.792,0,0,1-.592-.243.81.81,0,0,1-.238-.586V479.019a2.628,2.628,0,0,0-.22-1.056,2.82,2.82,0,0,0-.6-.884,2.877,2.877,0,0,0-.9-.611,2.657,2.657,0,0,0-1.068-.22,2.837,2.837,0,0,0-1.074.208,2.655,2.655,0,0,0-.891.586,2.8,2.8,0,0,0-.6.9,2.74,2.74,0,0,0-.213,1.08v10.739a.776.776,0,0,1-.245.579.805.805,0,0,1-.585.238A.823.823,0,0,1,178.778,490.337Z" transform="translate(-151.809 -474.418)" fill="#b10044"/>
      <path id="패스_58" data-name="패스 58" d="M202.759,490.447a.914.914,0,0,1-.274-.293l-.024-.049-.037-.085a.643.643,0,0,1-.049-.28V475.327a.838.838,0,0,1,.232-.591.763.763,0,0,1,.586-.251h6.089a4.11,4.11,0,0,1,1.653.341,4.255,4.255,0,0,1,2.307,2.4,4.706,4.706,0,0,1,.335,1.74,4.134,4.134,0,0,1-.433,1.885,4.2,4.2,0,0,1-1.215,1.459,4.558,4.558,0,0,1,1.459,1.616,4.441,4.441,0,0,1,.531,2.142,4.388,4.388,0,0,1-.348,1.733,4.525,4.525,0,0,1-.97,1.44,4.428,4.428,0,0,1-1.44.982,4.344,4.344,0,0,1-1.72.348h-6.309A.736.736,0,0,1,202.759,490.447Zm6.633-8.921a2.606,2.606,0,0,0,1.794-.781,2.665,2.665,0,0,0,.537-.812,2.441,2.441,0,0,0,.2-.97,2.941,2.941,0,0,0-.22-1.117,2.684,2.684,0,0,0-.586-.909,2.807,2.807,0,0,0-.879-.556,3.005,3.005,0,0,0-1.061-.214h-5.125v5.357Zm.049,7.371a2.467,2.467,0,0,0,1.05-.232,3.087,3.087,0,0,0,.891-.622,2.8,2.8,0,0,0,.586-.9,2.862,2.862,0,0,0,0-2.142,3.035,3.035,0,0,0-.574-.921,2.865,2.865,0,0,0-.866-.634,2.515,2.515,0,0,0-1.037-.244h-5.443v5.7Z" transform="translate(-156.809 -474.412)" fill="#b10044"/>
      <path id="패스_59" data-name="패스 59" d="M223.425,490.239a5.457,5.457,0,0,1-2.9-3.172,6.551,6.551,0,0,1-.379-2.222v-9.53a.794.794,0,0,1,.244-.592.863.863,0,0,1,1.19,0,.787.787,0,0,1,.25.592v9.42a5.113,5.113,0,0,0,.287,1.739,4,4,0,0,0,.812,1.373,3.619,3.619,0,0,0,1.263.891,4.044,4.044,0,0,0,1.617.318,4.174,4.174,0,0,0,1.666-.33,4,4,0,0,0,1.336-.94,4.094,4.094,0,0,0,.861-1.422,5.208,5.208,0,0,0,.3-1.788v-9.262a.794.794,0,0,1,.244-.592.862.862,0,0,1,1.189,0,.785.785,0,0,1,.251.592v9.311a6.819,6.819,0,0,1-.4,2.325,5.777,5.777,0,0,1-1.141,1.934,5.279,5.279,0,0,1-1.879,1.348,6.121,6.121,0,0,1-2.465.482A5.592,5.592,0,0,1,223.425,490.239Z" transform="translate(-160.536 -474.412)" fill="#b10044"/>
    </g>
  </g>
</svg>
