<svg xmlns="http://www.w3.org/2000/svg" width="154" height="119.756" viewBox="0 0 154 119.756">
  <g id="그룹_104" data-name="그룹 104" transform="translate(-57.929 -112.1)">
    <g id="그룹_13" data-name="그룹 13" transform="translate(109.155 112.1)">
      <g id="그룹_12" data-name="그룹 12" transform="translate(0 28.532)">
        <g id="그룹_6" data-name="그룹 6" transform="translate(0 0.177)">
          <rect id="사각형_154" data-name="사각형 154" width="50.688" height="3.3" fill="#fff"/>
        </g>
        <g id="그룹_7" data-name="그룹 7" transform="translate(3.441 11.761)">
          <rect id="사각형_155" data-name="사각형 155" width="43.808" height="3.3" fill="#fff"/>
        </g>
        <g id="그룹_8" data-name="그룹 8" transform="translate(7.006 23.344)">
          <rect id="사각형_156" data-name="사각형 156" width="36.677" height="3.3" fill="#fff"/>
        </g>
        <g id="그룹_9" data-name="그룹 9" transform="translate(8.757 34.928)">
          <rect id="사각형_157" data-name="사각형 157" width="33.174" height="3.3" fill="#fff"/>
        </g>
        <g id="그룹_10" data-name="그룹 10" transform="translate(8.757 46.512)">
          <rect id="사각형_158" data-name="사각형 158" width="33.174" height="3.3" fill="#fff"/>
        </g>
        <g id="그룹_11" data-name="그룹 11" transform="translate(41.234)">
          <path id="패스_25" data-name="패스 25" d="M143.638,164.86a1.679,1.679,0,0,1-.472-.069,1.651,1.651,0,0,1-1.11-2.053l7.012-23.522a1.65,1.65,0,1,1,3.162.943l-7.012,23.522A1.649,1.649,0,0,1,143.638,164.86Z" transform="translate(-141.987 -138.039)" fill="#fff"/>
        </g>
      </g>
      <path id="패스_26" data-name="패스 26" d="M149.458,112.1s1.026,10.736-4.9,18.466S128,140.1,128,140.1s-1.027-10.736,4.9-18.466S149.458,112.1,149.458,112.1Z" transform="translate(-102.158 -112.1)" fill="#fff"/>
    </g>
    <g id="그룹_16" data-name="그룹 16" transform="translate(57.929 209.165)">
      <g id="그룹_14" data-name="그룹 14" transform="translate(0 0.085)">
        <path id="패스_27" data-name="패스 27" d="M58.252,222.586a1.061,1.061,0,0,1-.323-.781v-20.3a1.046,1.046,0,0,1,1.121-1.088h11.4a1.064,1.064,0,0,1,.782.323,1.1,1.1,0,0,1,.322.815,1.122,1.122,0,0,1-.313.815,1.058,1.058,0,0,1-.791.322H60.2v8.815h7.151a1.077,1.077,0,0,1,.807.323,1.1,1.1,0,0,1,.313.8,1.023,1.023,0,0,1-.313.763,1.112,1.112,0,0,1-.807.306H60.2v8.1a1.039,1.039,0,0,1-.339.781,1.142,1.142,0,0,1-.816.322A1.08,1.08,0,0,1,58.252,222.586Z" transform="translate(-57.929 -200.421)" fill="#fff"/>
        <path id="패스_28" data-name="패스 28" d="M72.945,222.515a1.067,1.067,0,0,1-.331-.8V201.59a1.089,1.089,0,0,1,.331-.815,1.112,1.112,0,0,1,.807-.323h6.029a8.531,8.531,0,0,1,3.125.577,7.805,7.805,0,0,1,2.582,1.631,7.228,7.228,0,0,1,1.724,2.513,8.033,8.033,0,0,1,.62,3.143,7.538,7.538,0,0,1-.527,2.827,7.083,7.083,0,0,1-1.495,2.319,7.907,7.907,0,0,1-2.258,1.63,8.483,8.483,0,0,1-2.785.8l5.129,4.976a1.034,1.034,0,0,1,.34.833,1.054,1.054,0,0,1-.349.79,1.133,1.133,0,0,1-.807.331,1.091,1.091,0,0,1-.8-.339l-6.726-6.539H74.89v5.774a1.067,1.067,0,0,1-.331.8,1.168,1.168,0,0,1-1.614,0Zm6.836-8.866a6.478,6.478,0,0,0,2.326-.408,5.422,5.422,0,0,0,1.851-1.155,4.994,4.994,0,0,0,1.2-1.7,5.188,5.188,0,0,0,.416-2.071,5.609,5.609,0,0,0-.432-2.166,5.34,5.34,0,0,0-1.2-1.792,5.569,5.569,0,0,0-1.835-1.189,6.031,6.031,0,0,0-2.276-.425H74.89v10.9Z" transform="translate(-56.461 -200.418)" fill="#fff"/>
        <path id="패스_29" data-name="패스 29" d="M93.912,222.364a7.595,7.595,0,0,1-4.034-4.415,9.118,9.118,0,0,1-.527-3.092V201.592a1.105,1.105,0,0,1,.34-.824,1.2,1.2,0,0,1,1.657,0,1.1,1.1,0,0,1,.348.824V214.7a7.116,7.116,0,0,0,.4,2.421,5.588,5.588,0,0,0,1.13,1.911,5.035,5.035,0,0,0,1.758,1.24,5.632,5.632,0,0,0,2.251.442,5.809,5.809,0,0,0,2.319-.459,5.561,5.561,0,0,0,1.859-1.308,5.682,5.682,0,0,0,1.2-1.979,7.246,7.246,0,0,0,.416-2.488V201.592a1.105,1.105,0,0,1,.34-.824,1.2,1.2,0,0,1,1.655,0,1.093,1.093,0,0,1,.349.824v12.959a9.49,9.49,0,0,1-.552,3.236,8.04,8.04,0,0,1-1.588,2.692,7.354,7.354,0,0,1-2.615,1.877,8.525,8.525,0,0,1-3.432.671A7.782,7.782,0,0,1,93.912,222.364Z" transform="translate(-54.788 -200.419)" fill="#fff"/>
      </g>
      <g id="그룹_15" data-name="그룹 15" transform="translate(55.013)">
        <path id="패스_30" data-name="패스 30" d="M108.274,222.5a1.071,1.071,0,0,1-.331-.8V201.573a1.067,1.067,0,0,1,.331-.8,1.092,1.092,0,0,1,.79-.323,1.141,1.141,0,0,1,.815.323,1.054,1.054,0,0,1,.34.8v7.984l9.834-8.781a1.166,1.166,0,0,1,.764-.323,1.187,1.187,0,0,1,.815.34,1.217,1.217,0,0,1,.357.833,1.113,1.113,0,0,1-.374.815l-9.817,8.7,10.65,9.749a1.011,1.011,0,0,1,.34.815,1.075,1.075,0,0,1-.34.782,1.092,1.092,0,0,1-.8.339,1.119,1.119,0,0,1-.8-.339l-10.632-9.716V221.7a1.059,1.059,0,0,1-.34.8,1.14,1.14,0,0,1-.815.322A1.091,1.091,0,0,1,108.274,222.5Z" transform="translate(-107.943 -200.333)" fill="#fff"/>
        <path id="패스_31" data-name="패스 31" d="M128.187,222.407a8.362,8.362,0,0,1-2.641-1.732,8.031,8.031,0,0,1-1.75-2.555,7.642,7.642,0,0,1-.628-3.067v-6.709a7.634,7.634,0,0,1,.628-3.066,8.236,8.236,0,0,1,1.75-2.574,8.145,8.145,0,0,1,2.641-1.74,8.528,8.528,0,0,1,6.386,0,8.068,8.068,0,0,1,4.39,4.314,7.634,7.634,0,0,1,.628,3.066v6.709a7.642,7.642,0,0,1-.628,3.067,8.046,8.046,0,0,1-1.749,2.555,8.63,8.63,0,0,1-2.65,1.732,8.111,8.111,0,0,1-3.177.628A8.211,8.211,0,0,1,128.187,222.407Zm5.554-2.1a5.891,5.891,0,0,0,1.911-1.248,5.468,5.468,0,0,0,1.231-1.808,5.552,5.552,0,0,0,.433-2.182v-6.743a5.573,5.573,0,0,0-.433-2.175,5.448,5.448,0,0,0-1.231-1.817,5.91,5.91,0,0,0-1.911-1.248,6.189,6.189,0,0,0-6.633,1.248,5.572,5.572,0,0,0-1.24,1.817,5.484,5.484,0,0,0-.442,2.175v6.743a5.571,5.571,0,0,0,.433,2.182,5.372,5.372,0,0,0,1.248,1.808,6.286,6.286,0,0,0,6.633,1.248Z" transform="translate(-106.421 -200.344)" fill="#fff"/>
        <path id="패스_32" data-name="패스 32" d="M142.1,222.488a1.084,1.084,0,0,1-.34-.806V206.667a6.067,6.067,0,0,1,.484-2.4,6.223,6.223,0,0,1,3.33-3.329,6.086,6.086,0,0,1,2.386-.475,5.835,5.835,0,0,1,2.828.7,6.649,6.649,0,0,1,2.2,1.928,6.645,6.645,0,0,1,2.2-1.928,5.841,5.841,0,0,1,2.828-.7,6.18,6.18,0,0,1,6.217,6.2v15.014a1.083,1.083,0,0,1-.34.806,1.125,1.125,0,0,1-.815.331,1.171,1.171,0,0,1-.84-.331,1.068,1.068,0,0,1-.349-.806v-14.93a3.846,3.846,0,0,0-.3-1.5,3.89,3.89,0,0,0-.84-1.25,3.815,3.815,0,0,0-1.241-.823,3.891,3.891,0,0,0-1.511-.3,3.683,3.683,0,0,0-1.495.306,3.835,3.835,0,0,0-1.223.85,3.921,3.921,0,0,0-.806,1.239,3.815,3.815,0,0,0-.3,1.478v14.912a1.1,1.1,0,0,1-.349.816,1.159,1.159,0,0,1-.84.339,1.1,1.1,0,0,1-.824-.339,1.128,1.128,0,0,1-.331-.816V206.736a3.658,3.658,0,0,0-.306-1.47,3.924,3.924,0,0,0-.833-1.231,3.993,3.993,0,0,0-1.248-.85,3.7,3.7,0,0,0-1.486-.306,3.953,3.953,0,0,0-1.495.289,3.694,3.694,0,0,0-1.24.815,3.9,3.9,0,0,0-.84,1.248,3.832,3.832,0,0,0-.3,1.5v14.946a1.084,1.084,0,0,1-.34.806,1.125,1.125,0,0,1-.815.331A1.146,1.146,0,0,1,142.1,222.488Z" transform="translate(-104.563 -200.332)" fill="#fff"/>
        <path id="패스_33" data-name="패스 33" d="M166.136,222.653a1.264,1.264,0,0,1-.383-.408l-.033-.068-.052-.119a.894.894,0,0,1-.068-.39V201.608a1.166,1.166,0,0,1,.323-.823,1.062,1.062,0,0,1,.815-.349h8.475a5.721,5.721,0,0,1,2.3.475,6.058,6.058,0,0,1,1.928,1.324,5.994,5.994,0,0,1,1.283,2.013,6.551,6.551,0,0,1,.466,2.421,5.754,5.754,0,0,1-.6,2.623,5.856,5.856,0,0,1-1.69,2.031,6.352,6.352,0,0,1,2.029,2.249,6.324,6.324,0,0,1,.255,5.393,6.3,6.3,0,0,1-1.351,2,6.162,6.162,0,0,1-2,1.367,6.046,6.046,0,0,1-2.395.484h-8.781A1.015,1.015,0,0,1,166.136,222.653Zm9.231-12.416a3.627,3.627,0,0,0,2.5-1.087,3.708,3.708,0,0,0,.747-1.13,3.4,3.4,0,0,0,.272-1.35,4.093,4.093,0,0,0-.306-1.554,3.735,3.735,0,0,0-.815-1.265,3.908,3.908,0,0,0-1.222-.773,4.192,4.192,0,0,0-1.478-.3h-7.133v7.457Zm.068,10.259a3.432,3.432,0,0,0,1.461-.323,4.3,4.3,0,0,0,1.24-.866,3.9,3.9,0,0,0,.815-1.257,3.984,3.984,0,0,0,0-2.981,4.225,4.225,0,0,0-.8-1.283,3.987,3.987,0,0,0-1.206-.882,3.5,3.5,0,0,0-1.443-.34h-7.575V220.5Z" transform="translate(-102.18 -200.335)" fill="#fff"/>
        <path id="패스_34" data-name="패스 34" d="M187.933,222.364a7.595,7.595,0,0,1-4.034-4.415,9.118,9.118,0,0,1-.527-3.092V201.592a1.105,1.105,0,0,1,.34-.824,1.2,1.2,0,0,1,1.657,0,1.1,1.1,0,0,1,.348.824V214.7a7.116,7.116,0,0,0,.4,2.421,5.588,5.588,0,0,0,1.13,1.911,5.035,5.035,0,0,0,1.758,1.24,5.632,5.632,0,0,0,2.251.442,5.809,5.809,0,0,0,2.319-.459,5.561,5.561,0,0,0,1.859-1.308,5.682,5.682,0,0,0,1.2-1.979,7.246,7.246,0,0,0,.416-2.488V201.592a1.105,1.105,0,0,1,.34-.824,1.2,1.2,0,0,1,1.655,0,1.093,1.093,0,0,1,.349.824v12.959a9.491,9.491,0,0,1-.552,3.236,8.041,8.041,0,0,1-1.588,2.692,7.354,7.354,0,0,1-2.615,1.877,8.525,8.525,0,0,1-3.432.671A7.782,7.782,0,0,1,187.933,222.364Z" transform="translate(-100.403 -200.335)" fill="#fff"/>
      </g>
    </g>
  </g>
</svg>
