<svg xmlns="http://www.w3.org/2000/svg" width="50" height="50" viewBox="0 0 50 50">
  <g id="그룹_112" data-name="그룹 112" transform="translate(-1300 -7702.475)">
    <g id="그룹_105" data-name="그룹 105" transform="translate(1013.09 7561.896)">
      <g id="그룹_18" data-name="그룹 18" transform="translate(297.243 150.912)">
        <path id="패스_35" data-name="패스 35" d="M324.1,157.273a1.7,1.7,0,1,0,1.7,1.7A1.7,1.7,0,0,0,324.1,157.273Z" transform="translate(-301.95 -152.102)" fill="#fff"/>
        <path id="패스_36" data-name="패스 36" d="M313.56,159.952a7.132,7.132,0,1,0,7.131,7.131A7.14,7.14,0,0,0,313.56,159.952Zm0,11.7a4.568,4.568,0,1,1,4.568-4.568A4.574,4.574,0,0,1,313.56,171.652Z" transform="translate(-298.962 -152.604)" fill="#fff"/>
        <path id="패스_37" data-name="패스 37" d="M317.5,179.872H305.941a8.708,8.708,0,0,1-8.7-8.7V159.611a8.708,8.708,0,0,1,8.7-8.7H317.5a8.709,8.709,0,0,1,8.7,8.7v11.562A8.709,8.709,0,0,1,317.5,179.872Zm-11.562-26.235a5.981,5.981,0,0,0-5.974,5.974v11.562a5.981,5.981,0,0,0,5.974,5.975H317.5a5.981,5.981,0,0,0,5.975-5.975V159.611a5.981,5.981,0,0,0-5.975-5.974Z" transform="translate(-297.243 -150.912)" fill="#fff"/>
      </g>
    </g>
    <g id="타원_57" data-name="타원 57" transform="translate(1300 7702.475)" fill="none" stroke="#fff" stroke-width="1">
      <circle cx="25" cy="25" r="25" stroke="none"/>
      <circle cx="25" cy="25" r="24.5" fill="none"/>
    </g>
  </g>
</svg>
