<svg xmlns="http://www.w3.org/2000/svg" width="52" height="52" viewBox="0 0 52 52">
  <g id="그룹_114" data-name="그룹 114" transform="translate(-1458 -7701.475)">
    <g id="타원_59" data-name="타원 59" transform="translate(1458 7701.475)" fill="none" stroke="#fff" stroke-width="1">
      <circle cx="26" cy="26" r="26" stroke="none"/>
      <circle cx="26" cy="26" r="25.5" fill="none"/>
    </g>
    <path id="패스_99" data-name="패스 99" d="M323.624,208.876a12.5,12.5,0,0,1-3.068.875c.493-.083,1.217-.976,1.508-1.337a5.635,5.635,0,0,0,1.018-1.857c.027-.053.046-.119-.007-.159a.176.176,0,0,0-.163.013,15.624,15.624,0,0,1-3.637,1.392.243.243,0,0,1-.251-.066,2.865,2.865,0,0,0-.318-.325,6.434,6.434,0,0,0-1.762-1.08,6.132,6.132,0,0,0-2.7-.435,6.465,6.465,0,0,0-2.564.724,6.616,6.616,0,0,0-2.068,1.69,6.35,6.35,0,0,0-1.235,2.474,6.7,6.7,0,0,0-.066,2.611c.02.146.007.166-.125.146-5-.744-9.136-2.531-12.5-6.361-.146-.167-.225-.167-.345.013-1.471,2.2-.758,5.747,1.08,7.488.245.233.5.465.768.676a6.367,6.367,0,0,1-2.412-.676c-.146-.092-.219-.039-.232.127a3.806,3.806,0,0,0,.04.716,6.408,6.408,0,0,0,3.95,5.109,3.743,3.743,0,0,0,.8.245,7.142,7.142,0,0,1-2.365.073c-.172-.033-.238.053-.172.219a6.652,6.652,0,0,0,4.97,4.162c.226.04.451.04.677.092-.014.02-.027.02-.041.04-.558.851-2.492,1.484-3.394,1.8a12.151,12.151,0,0,1-5.155.66c-.277-.041-.335-.038-.41,0s-.01.114.079.185c.351.232.709.438,1.074.636a16.976,16.976,0,0,0,3.445,1.379c6.193,1.71,13.168.453,17.818-4.166,3.651-3.628,4.931-8.631,4.931-13.64,0-.2.231-.3.369-.408a12.069,12.069,0,0,0,2.426-2.522.772.772,0,0,0,.16-.484v-.026C323.749,208.8,323.747,208.82,323.624,208.876Z" transform="translate(1177.062 7509.107)" fill="#fff"/>
  </g>
</svg>
