<svg xmlns="http://www.w3.org/2000/svg" width="52" height="52" viewBox="0 0 52 52">
  <g id="그룹_115" data-name="그룹 115" transform="translate(-1541 -7701.475)">
    <g id="타원_60" data-name="타원 60" transform="translate(1541 7701.475)" fill="none" stroke="#fff" stroke-width="1">
      <circle cx="26" cy="26" r="26" stroke="none"/>
      <circle cx="26" cy="26" r="25.5" fill="none"/>
    </g>
    <path id="패스_100" data-name="패스 100" d="M323.086,436.646a5.735,5.735,0,0,0-5.734-5.734H302.689a5.735,5.735,0,0,0-5.734,5.734v6.823a5.735,5.735,0,0,0,5.734,5.734h14.663a5.735,5.735,0,0,0,5.734-5.734Zm-8.623,3.923-6.575,3.253c-.258.139-1.134-.047-1.134-.34V436.8c0-.3.884-.484,1.141-.336l6.294,3.424C314.453,440.043,314.73,440.425,314.463,440.569Z" transform="translate(1257.08 7287.229)" fill="#fff"/>
  </g>
</svg>
